<svg height="40" version="1.1" viewBox="8 8 24 24" width="40" xmlns="http://www.w3.org/2000/svg">
<g fill="none" fill-rule="evenodd" stroke="none" stroke-width="40">

<path d="M24.3453673,12 C24.5384812,11.9994777 24.7110829,12.1200086 24.7765579,12.3011101 L24.7765579,12.3011101 L25.0050659,12.3011101 C25.2610133,12.3011101 25.4662324,12.5056799 25.4662324,12.7608175 L25.4662324,12.7608175 L25.4662324,14.5260939 C25.4662324,14.7812315 25.2610133,14.9858013 25.0050659,14.9858013 L25.0050659,14.9858013 L24.8021527,14.9858013 L30.6151562,21.8078594 C30.6864064,21.8906067 30.7256056,21.9963394 30.7256056,22.1043706 L30.7256056,22.1043706 L30.7256056,23.3340879 C30.7256055,23.3662675 30.7209939,23.4007455 30.7138458,23.4306265 C30.898543,23.8857369 31.0002302,24.3822209 31,24.9016902 C31,27.087599 29.2150547,28.8666667 27.0224387,28.8666667 C25.3161227,28.8666667 23.8565308,27.7886528 23.2939077,26.2808125 L23.2939077,26.2808125 L17.0727719,26.2808125 C16.5099182,27.7886528 15.0505569,28.8666667 13.3442409,28.8666667 C11.1513943,28.8666667 9.36666667,27.087599 9.36666667,24.9016902 C9.36518614,24.3308779 9.48947783,23.7667045 9.73077091,23.2490421 L9.73077091,23.2490421 L9.73077091,21.9319803 C9.21703146,21.1573734 9.71716649,20.1069419 9.77942398,19.9828209 C9.85749064,19.8271868 10.0173816,19.729186 10.1919374,19.7299818 L10.1919374,19.7299818 L17.5823608,19.7299818 C17.8383082,19.7299818 18.0435273,19.9345516 18.0435273,20.1896892 L18.0435273,20.1896892 L18.0435273,22.5135102 L20.9281237,22.5135102 C21.8156386,22.1825209 22.4107739,21.6331705 22.7428138,20.8355782 C23.5498551,18.9025085 22.5352888,16.1419655 22.1801907,15.2869097 L22.1801907,15.2869097 L21.2786102,15.2869097 C21.024738,15.2869097 20.8174437,15.0800414 20.8174437,14.8272023 L20.8174437,14.8272023 L20.8174437,12.4597091 C20.8174437,12.20687 21.0247381,12 21.2786102,12 L21.2786102,12 Z M13.3083333,22.8166667 C12.143933,22.8166667 11.2,23.7605997 11.2,24.925 C11.2,26.0894003 12.143933,27.0333333 13.3083333,27.0333333 C14.4727337,27.0333333 15.4166667,26.0894003 15.4166667,24.925 C15.4166667,23.7605997 14.4727337,22.8166667 13.3083333,22.8166667 Z M27.0583333,22.8166667 C25.893933,22.8166667 24.95,23.7605997 24.95,24.925 C24.95,26.0894003 25.893933,27.0333333 27.0583333,27.0333333 C28.2227337,27.0333333 29.1666667,26.0894003 29.1666667,24.925 C29.1666667,23.7605997 28.2227337,22.8166667 27.0583333,22.8166667 Z" fill="#000"></path>
<path d="M10.4237639,18.6 L16.7429028,18.6 C17.5259729,18.6 18.1666667,17.998963 18.1666667,17.259397 L18.1666667,16.4572696 C18.1666667,15.7177037 17.5259729,15.1166667 16.7429028,15.1166667 L10.4237639,15.1166667 C9.63784623,15.1166667 9,15.7177037 9,16.4572696 L9,17.259397 C9,17.998963 9.63784623,18.6 10.4237639,18.6 Z" fill="#000" fill-opacity=".6"></path>
</g>
</svg>
